<?xml version="1.0" encoding="iso-8859-1"?>
<!-- Generator: Adobe Illustrator 19.0.0, SVG Export Plug-In . SVG Version: 6.00 Build 0)  -->
<svg xmlns="http://www.w3.org/2000/svg" xmlns:xlink="http://www.w3.org/1999/xlink" version="1.1" id="Layer_1" x="0px" y="0px" viewBox="0 0 512.01 512.01" style="enable-background:new 0 0 512.01 512.01;" xml:space="preserve" width="512px" height="256px">
<g>
	<g>
		<path d="M510.025,301.746l-38.11-45.739l38.11-45.739c2.125-2.543,2.577-6.084,1.178-9.079c-1.408-2.995-4.42-4.915-7.731-4.915    H391.403l-7.484-52.403c-0.606-4.207-4.198-7.33-8.448-7.33h-65.178c-10.052-8.38-48.828-40.687-48.828-40.687    c-3.166-2.645-7.757-2.645-10.923,0l-48.828,40.687h-65.178c-4.25,0-7.842,3.123-8.448,7.322l-7.484,52.412H8.538    c-3.311,0-6.323,1.92-7.731,4.915c-1.408,3.004-0.947,6.545,1.178,9.079l38.11,45.739l-38.11,45.739    c-2.125,2.543-2.577,6.084-1.178,9.079c1.408,3.004,4.42,4.915,7.731,4.915h112.068c2.278,15.915,7.492,52.412,7.492,52.412    c0.597,4.207,4.198,7.322,8.439,7.322h65.178l48.828,40.687c1.587,1.323,3.524,1.98,5.461,1.98s3.883-0.657,5.461-1.98    l48.819-40.687c13.261,0,65.203,0.034,65.186,0c4.25,0,7.842-3.123,8.448-7.322c0,0,5.214-36.497,7.492-52.412h112.06    c3.311,0,6.323-1.92,7.731-4.915C512.611,307.821,512.15,304.28,510.025,301.746z M78.785,261.468l31.002,37.205H26.757    l31.002-37.205c2.637-3.166,2.637-7.757,0-10.923L26.757,213.34h83.029l-31.002,37.205    C76.148,253.711,76.148,258.302,78.785,261.468z M347.371,219.373L227.905,338.84c-1.664,1.673-3.849,2.5-6.033,2.5    c-2.185,0-4.369-0.836-6.033-2.5l-59.733-59.733c-3.328-3.328-3.328-8.738,0-12.066l25.6-25.6c3.328-3.328,8.738-3.328,12.066,0    l25.079,25.079c1.664,1.664,4.369,1.664,6.033,0l84.813-84.813c3.328-3.328,8.738-3.328,12.066,0l25.6,25.6    C350.699,210.644,350.699,216.045,347.371,219.373z M402.223,298.674l31.002-37.205c2.637-3.166,2.637-7.757,0-10.923    l-31.002-37.205h83.029l-31.002,37.205c-2.637,3.166-2.637,7.757,0,10.923l31.002,37.205H402.223z" fill="#00cf30"/>
	</g>
</g>
<g>
	<g>
		<path d="M326.26,210.328l-7.501-7.501c-1.664-1.664-4.369-1.664-6.033,0l-84.821,84.813c-3.328,3.328-8.738,3.328-12.066,0    l-25.079-25.079c-1.664-1.664-4.369-1.664-6.033,0l-7.501,7.501c-1.664,1.664-1.664,4.369,0,6.033l41.634,41.634    c1.664,1.664,4.369,1.664,6.033,0L326.26,216.361C327.924,214.697,327.924,211.992,326.26,210.328z" fill="#00cf30"/>
	</g>
</g>
</svg>
